<svg xmlns="http://www.w3.org/2000/svg" viewBox="0 0 48 48" width="48" height="48" preserveAspectRatio="xMidYMid meet" style="width: 100%; height: 100%; transform: translate3d(0px, 0px, 0px);"><defs><clipPath id="__lottie_element_8"><rect width="48" height="48" x="0" y="0"></rect></clipPath></defs><g clip-path="url(#__lottie_element_8)"><g transform="matrix(0.9999980330467224,-0.0019747710321098566,0.0019747710321098566,0.9999980330467224,23.54576301574707,23.154340744018555)" opacity="1" style="display: block;"><g opacity="1" transform="matrix(1,0,0,1,0,0)"><path fill="rgb(233,30,99)" fill-opacity="1" d=" M-5,0 C-9.970999717712402,0 -14,4.0289998054504395 -14,9 C-14,13.970999717712402 -9.970999717712402,18 -5,18 C-0.028999999165534973,18 4,13.970999717712402 4,9 C4,4.0289998054504395 -0.028999999165534973,0 -5,0z"></path></g><g opacity="1" transform="matrix(1,0,0,1,0,0)"><path fill="rgb(233,30,99)" fill-opacity="1" d=" M0,-18 C0,-18 0,9 0,9 C0,9 4,9 4,9 C4,9 4,-10 4,-10 C4,-10 15,-7 15,-7 C15,-7 15,-14 15,-14 C15,-14 0,-18 0,-18z"></path></g></g></g></svg>